# Original low-poly quarantine checkpoint gate for OUTBREAK BLACK SITE
# Units are meters. CC0-style project-owned geometry.
o quarantine_gate
# left post
v -3.40 0.00 -0.35
v -2.75 0.00 -0.35
v -2.75 4.70 -0.35
v -3.40 4.70 -0.35
v -3.40 0.00 0.35
v -2.75 0.00 0.35
v -2.75 4.70 0.35
v -3.40 4.70 0.35
f 1 2 3 4
f 5 8 7 6
f 1 5 6 2
f 4 3 7 8
f 2 6 7 3
f 1 4 8 5
# right post
v 2.75 0.00 -0.35
v 3.40 0.00 -0.35
v 3.40 4.70 -0.35
v 2.75 4.70 -0.35
v 2.75 0.00 0.35
v 3.40 0.00 0.35
v 3.40 4.70 0.35
v 2.75 4.70 0.35
f 9 10 11 12
f 13 16 15 14
f 9 13 14 10
f 12 11 15 16
f 10 14 15 11
f 9 12 16 13
# top beam
v -3.55 4.15 -0.42
v 3.55 4.15 -0.42
v 3.55 4.85 -0.42
v -3.55 4.85 -0.42
v -3.55 4.15 0.42
v 3.55 4.15 0.42
v 3.55 4.85 0.42
v -3.55 4.85 0.42
f 17 18 19 20
f 21 24 23 22
f 17 21 22 18
f 20 19 23 24
f 18 22 23 19
f 17 20 24 21
# hanging warning board
v -1.70 3.00 -0.52
v 1.70 3.00 -0.52
v 1.70 3.75 -0.52
v -1.70 3.75 -0.52
v -1.70 3.00 -0.28
v 1.70 3.00 -0.28
v 1.70 3.75 -0.28
v -1.70 3.75 -0.28
f 25 26 27 28
f 29 32 31 30
f 25 29 30 26
f 28 27 31 32
f 26 30 31 27
f 25 28 32 29
# diagonal collapsed brace
v -3.00 0.65 -0.18
v -2.72 0.45 -0.18
v 2.95 3.52 -0.18
v 2.67 3.72 -0.18
v -3.00 0.65 0.18
v -2.72 0.45 0.18
v 2.95 3.52 0.18
v 2.67 3.72 0.18
f 33 34 35 36
f 37 40 39 38
f 33 37 38 34
f 36 35 39 40
f 34 38 39 35
f 33 36 40 37
