# Original low-poly ruined roadside shrine for OUTBREAK BLACK SITE
o ruined_shrine
# base slab
v -1.60 0.00 -1.30
v 1.60 0.00 -1.30
v 1.60 0.35 -1.30
v -1.60 0.35 -1.30
v -1.60 0.00 1.30
v 1.60 0.00 1.30
v 1.60 0.35 1.30
v -1.60 0.35 1.30
f 1 2 3 4
f 5 8 7 6
f 1 5 6 2
f 4 3 7 8
f 2 6 7 3
f 1 4 8 5
# second step
v -1.20 0.35 -1.00
v 1.20 0.35 -1.00
v 1.20 0.70 -1.00
v -1.20 0.70 -1.00
v -1.20 0.35 1.00
v 1.20 0.35 1.00
v 1.20 0.70 1.00
v -1.20 0.70 1.00
f 9 10 11 12
f 13 16 15 14
f 9 13 14 10
f 12 11 15 16
f 10 14 15 11
f 9 12 16 13
# central obelisk body
v -0.58 0.70 -0.52
v 0.58 0.70 -0.52
v 0.46 3.65 -0.42
v -0.46 3.65 -0.42
v -0.58 0.70 0.52
v 0.58 0.70 0.52
v 0.46 3.65 0.42
v -0.46 3.65 0.42
f 17 18 19 20
f 21 24 23 22
f 17 21 22 18
f 20 19 23 24
f 18 22 23 19
f 17 20 24 21
# broken pointed crown
v -0.46 3.65 -0.42
v 0.46 3.65 -0.42
v 0.46 3.65 0.42
v -0.46 3.65 0.42
v 0.12 4.62 -0.08
f 25 26 29
f 26 27 29
f 27 28 29
f 28 25 29
f 25 28 27 26
# left fallen fragment
v -1.38 0.42 -0.34
v -0.80 0.42 -0.34
v -0.68 1.28 -0.28
v -1.24 1.36 -0.28
v -1.38 0.42 0.34
v -0.80 0.42 0.34
v -0.68 1.28 0.28
v -1.24 1.36 0.28
f 30 31 32 33
f 34 37 36 35
f 30 34 35 31
f 33 32 36 37
f 31 35 36 32
f 30 33 37 34
# right altar shard
v 0.86 0.38 -0.52
v 1.46 0.38 -0.52
v 1.52 1.04 -0.30
v 0.98 1.22 -0.30
v 0.86 0.38 0.52
v 1.46 0.38 0.52
v 1.52 1.04 0.30
v 0.98 1.22 0.30
f 38 39 40 41
f 42 45 44 43
f 38 42 43 39
f 41 40 44 45
f 39 43 44 40
f 38 41 45 42
